<mxfile host="app.diagrams.net" agent="Mozilla/5.0 (Windows NT 10.0; Win64; x64) AppleWebKit/537.36 (KHTML, like Gecko) Chrome/131.0.0.0 Safari/537.36 Edg/131.0.0.0" version="25.0.3">
  <diagram id="C5RBs43oDa-KdzZeNtuy" name="Page-1">
    <mxGraphModel dx="1965" dy="1053" grid="1" gridSize="10" guides="1" tooltips="1" connect="1" arrows="1" fold="1" page="1" pageScale="1" pageWidth="827" pageHeight="1169" background="#ffffff" math="0" shadow="1">
      <root>
        <mxCell id="WIyWlLk6GJQsqaUBKTNV-0" />
        <mxCell id="WIyWlLk6GJQsqaUBKTNV-1" parent="WIyWlLk6GJQsqaUBKTNV-0" />
        <mxCell id="CSa7q8-_0lmayoIT9pLw-3" value="" style="edgeStyle=orthogonalEdgeStyle;rounded=0;orthogonalLoop=1;jettySize=auto;html=1;" edge="1" parent="WIyWlLk6GJQsqaUBKTNV-1" source="eS74OC8M9QgN0ZQbm4vK-0" target="eS74OC8M9QgN0ZQbm4vK-1">
          <mxGeometry relative="1" as="geometry" />
        </mxCell>
        <mxCell id="eS74OC8M9QgN0ZQbm4vK-0" value="Start function" style="strokeWidth=2;html=1;shape=mxgraph.flowchart.terminator;whiteSpace=wrap;" parent="WIyWlLk6GJQsqaUBKTNV-1" vertex="1">
          <mxGeometry x="249.75" y="10" width="110" height="60" as="geometry" />
        </mxCell>
        <mxCell id="CSa7q8-_0lmayoIT9pLw-26" style="edgeStyle=orthogonalEdgeStyle;rounded=0;orthogonalLoop=1;jettySize=auto;html=1;exitX=0.5;exitY=1;exitDx=0;exitDy=0;entryX=0.5;entryY=0;entryDx=0;entryDy=0;" edge="1" parent="WIyWlLk6GJQsqaUBKTNV-1" source="eS74OC8M9QgN0ZQbm4vK-1" target="CSa7q8-_0lmayoIT9pLw-25">
          <mxGeometry relative="1" as="geometry" />
        </mxCell>
        <mxCell id="eS74OC8M9QgN0ZQbm4vK-1" value="Input int &amp;amp;num_sensors,&amp;nbsp;&lt;div&gt;&amp;amp;sampling, &amp;amp;&lt;span style=&quot;background-color: initial;&quot;&gt;interval,&amp;nbsp;&lt;/span&gt;&lt;/div&gt;&lt;div&gt;&lt;span style=&quot;background-color: initial;&quot;&gt;int argc, char *argv&lt;/span&gt;&lt;/div&gt;" style="shape=parallelogram;html=1;strokeWidth=2;perimeter=parallelogramPerimeter;whiteSpace=wrap;rounded=1;arcSize=12;size=0.23;" parent="WIyWlLk6GJQsqaUBKTNV-1" vertex="1">
          <mxGeometry x="189.75" y="110" width="230" height="60" as="geometry" />
        </mxCell>
        <mxCell id="CSa7q8-_0lmayoIT9pLw-14" value="" style="edgeStyle=orthogonalEdgeStyle;rounded=0;orthogonalLoop=1;jettySize=auto;html=1;" edge="1" parent="WIyWlLk6GJQsqaUBKTNV-1" source="CSa7q8-_0lmayoIT9pLw-6" target="CSa7q8-_0lmayoIT9pLw-12">
          <mxGeometry relative="1" as="geometry" />
        </mxCell>
        <mxCell id="CSa7q8-_0lmayoIT9pLw-81" style="edgeStyle=orthogonalEdgeStyle;rounded=0;orthogonalLoop=1;jettySize=auto;html=1;exitX=1;exitY=0.5;exitDx=0;exitDy=0;entryX=0.5;entryY=0;entryDx=0;entryDy=0;" edge="1" parent="WIyWlLk6GJQsqaUBKTNV-1" source="CSa7q8-_0lmayoIT9pLw-6" target="CSa7q8-_0lmayoIT9pLw-56">
          <mxGeometry relative="1" as="geometry" />
        </mxCell>
        <mxCell id="CSa7q8-_0lmayoIT9pLw-6" value="i + 1 &amp;gt; argc?" style="rhombus;whiteSpace=wrap;html=1;" vertex="1" parent="WIyWlLk6GJQsqaUBKTNV-1">
          <mxGeometry x="431.75" y="460" width="106" height="100" as="geometry" />
        </mxCell>
        <mxCell id="CSa7q8-_0lmayoIT9pLw-10" value="End function" style="strokeWidth=2;html=1;shape=mxgraph.flowchart.terminator;whiteSpace=wrap;" vertex="1" parent="WIyWlLk6GJQsqaUBKTNV-1">
          <mxGeometry x="87" y="390" width="110" height="60" as="geometry" />
        </mxCell>
        <mxCell id="CSa7q8-_0lmayoIT9pLw-80" style="edgeStyle=orthogonalEdgeStyle;rounded=0;orthogonalLoop=1;jettySize=auto;html=1;exitX=0;exitY=0.5;exitDx=0;exitDy=0;entryX=1;entryY=0.5;entryDx=0;entryDy=0;" edge="1" parent="WIyWlLk6GJQsqaUBKTNV-1" source="CSa7q8-_0lmayoIT9pLw-12" target="CSa7q8-_0lmayoIT9pLw-13">
          <mxGeometry relative="1" as="geometry" />
        </mxCell>
        <mxCell id="CSa7q8-_0lmayoIT9pLw-82" style="edgeStyle=orthogonalEdgeStyle;rounded=0;orthogonalLoop=1;jettySize=auto;html=1;exitX=1;exitY=0.5;exitDx=0;exitDy=0;entryX=0;entryY=0.5;entryDx=0;entryDy=0;" edge="1" parent="WIyWlLk6GJQsqaUBKTNV-1" source="CSa7q8-_0lmayoIT9pLw-12" target="CSa7q8-_0lmayoIT9pLw-56">
          <mxGeometry relative="1" as="geometry" />
        </mxCell>
        <mxCell id="CSa7q8-_0lmayoIT9pLw-12" value="checkPositiveInteger&lt;div&gt;(argv[i + 1]) == 1?&lt;/div&gt;" style="rhombus;whiteSpace=wrap;html=1;" vertex="1" parent="WIyWlLk6GJQsqaUBKTNV-1">
          <mxGeometry x="412.25" y="590" width="145" height="110" as="geometry" />
        </mxCell>
        <mxCell id="CSa7q8-_0lmayoIT9pLw-74" style="edgeStyle=orthogonalEdgeStyle;rounded=0;orthogonalLoop=1;jettySize=auto;html=1;exitX=0.5;exitY=1;exitDx=0;exitDy=0;entryX=0.5;entryY=0;entryDx=0;entryDy=0;" edge="1" parent="WIyWlLk6GJQsqaUBKTNV-1" target="CSa7q8-_0lmayoIT9pLw-44">
          <mxGeometry relative="1" as="geometry">
            <mxPoint x="304.75" y="730" as="sourcePoint" />
          </mxGeometry>
        </mxCell>
        <mxCell id="CSa7q8-_0lmayoIT9pLw-75" style="edgeStyle=orthogonalEdgeStyle;rounded=0;orthogonalLoop=1;jettySize=auto;html=1;exitX=0.5;exitY=1;exitDx=0;exitDy=0;entryX=0.5;entryY=0;entryDx=0;entryDy=0;" edge="1" parent="WIyWlLk6GJQsqaUBKTNV-1" source="CSa7q8-_0lmayoIT9pLw-13" target="CSa7q8-_0lmayoIT9pLw-21">
          <mxGeometry relative="1" as="geometry">
            <mxPoint x="304.75" y="730" as="sourcePoint" />
            <Array as="points">
              <mxPoint x="305" y="740" />
              <mxPoint x="131" y="740" />
            </Array>
          </mxGeometry>
        </mxCell>
        <mxCell id="CSa7q8-_0lmayoIT9pLw-76" style="edgeStyle=orthogonalEdgeStyle;rounded=0;orthogonalLoop=1;jettySize=auto;html=1;entryX=0.5;entryY=0;entryDx=0;entryDy=0;exitX=0.5;exitY=1;exitDx=0;exitDy=0;" edge="1" parent="WIyWlLk6GJQsqaUBKTNV-1" source="CSa7q8-_0lmayoIT9pLw-13" target="CSa7q8-_0lmayoIT9pLw-72">
          <mxGeometry relative="1" as="geometry">
            <mxPoint x="305" y="710" as="sourcePoint" />
            <Array as="points">
              <mxPoint x="305" y="740" />
              <mxPoint x="485" y="740" />
            </Array>
          </mxGeometry>
        </mxCell>
        <mxCell id="CSa7q8-_0lmayoIT9pLw-83" style="edgeStyle=orthogonalEdgeStyle;rounded=0;orthogonalLoop=1;jettySize=auto;html=1;exitX=0;exitY=0.5;exitDx=0;exitDy=0;entryX=1;entryY=0.5;entryDx=0;entryDy=0;" edge="1" parent="WIyWlLk6GJQsqaUBKTNV-1" source="CSa7q8-_0lmayoIT9pLw-13" target="CSa7q8-_0lmayoIT9pLw-57">
          <mxGeometry relative="1" as="geometry" />
        </mxCell>
        <mxCell id="CSa7q8-_0lmayoIT9pLw-13" value="checkPositiveInteger&lt;div&gt;(argv[i + 1]) == 2?&lt;/div&gt;" style="rhombus;whiteSpace=wrap;html=1;" vertex="1" parent="WIyWlLk6GJQsqaUBKTNV-1">
          <mxGeometry x="232.25" y="590" width="145" height="110" as="geometry" />
        </mxCell>
        <mxCell id="CSa7q8-_0lmayoIT9pLw-89" style="edgeStyle=orthogonalEdgeStyle;rounded=0;orthogonalLoop=1;jettySize=auto;html=1;exitX=0.5;exitY=1;exitDx=0;exitDy=0;entryX=0.5;entryY=1;entryDx=0;entryDy=0;fillColor=#f8cecc;strokeColor=#b85450;" edge="1" parent="WIyWlLk6GJQsqaUBKTNV-1" source="CSa7q8-_0lmayoIT9pLw-21" target="CSa7q8-_0lmayoIT9pLw-73">
          <mxGeometry relative="1" as="geometry">
            <Array as="points">
              <mxPoint x="131" y="950" />
              <mxPoint x="485" y="950" />
            </Array>
          </mxGeometry>
        </mxCell>
        <mxCell id="CSa7q8-_0lmayoIT9pLw-21" value="num_sensor&amp;nbsp;&lt;div&gt;= stoi(argv[i + 1])&lt;/div&gt;" style="rounded=1;whiteSpace=wrap;html=1;absoluteArcSize=1;arcSize=14;strokeWidth=2;fillColor=#f8cecc;strokeColor=#b85450;" vertex="1" parent="WIyWlLk6GJQsqaUBKTNV-1">
          <mxGeometry x="72" y="760" width="118.5" height="60" as="geometry" />
        </mxCell>
        <mxCell id="CSa7q8-_0lmayoIT9pLw-66" style="edgeStyle=orthogonalEdgeStyle;rounded=0;orthogonalLoop=1;jettySize=auto;html=1;exitX=1;exitY=0.5;exitDx=0;exitDy=0;entryX=0;entryY=0.5;entryDx=0;entryDy=0;" edge="1" parent="WIyWlLk6GJQsqaUBKTNV-1" source="CSa7q8-_0lmayoIT9pLw-23" target="CSa7q8-_0lmayoIT9pLw-30">
          <mxGeometry relative="1" as="geometry" />
        </mxCell>
        <mxCell id="CSa7q8-_0lmayoIT9pLw-68" style="edgeStyle=orthogonalEdgeStyle;rounded=0;orthogonalLoop=1;jettySize=auto;html=1;exitX=0.5;exitY=1;exitDx=0;exitDy=0;entryX=0.5;entryY=0;entryDx=0;entryDy=0;" edge="1" parent="WIyWlLk6GJQsqaUBKTNV-1" source="CSa7q8-_0lmayoIT9pLw-23" target="CSa7q8-_0lmayoIT9pLw-6">
          <mxGeometry relative="1" as="geometry">
            <Array as="points">
              <mxPoint x="305" y="460" />
            </Array>
          </mxGeometry>
        </mxCell>
        <mxCell id="CSa7q8-_0lmayoIT9pLw-23" value="argv[i]&amp;nbsp;&lt;div&gt;is &quot;-n&quot;?&lt;/div&gt;" style="rhombus;whiteSpace=wrap;html=1;fillColor=#ffe6cc;strokeColor=#d79b00;" vertex="1" parent="WIyWlLk6GJQsqaUBKTNV-1">
          <mxGeometry x="252.75" y="330" width="105" height="100" as="geometry" />
        </mxCell>
        <mxCell id="CSa7q8-_0lmayoIT9pLw-27" style="edgeStyle=orthogonalEdgeStyle;rounded=0;orthogonalLoop=1;jettySize=auto;html=1;exitX=0.5;exitY=1;exitDx=0;exitDy=0;entryX=0.5;entryY=0;entryDx=0;entryDy=0;" edge="1" parent="WIyWlLk6GJQsqaUBKTNV-1" source="CSa7q8-_0lmayoIT9pLw-25" target="CSa7q8-_0lmayoIT9pLw-23">
          <mxGeometry relative="1" as="geometry" />
        </mxCell>
        <mxCell id="CSa7q8-_0lmayoIT9pLw-25" value="i &amp;lt; argc?" style="rhombus;whiteSpace=wrap;html=1;" vertex="1" parent="WIyWlLk6GJQsqaUBKTNV-1">
          <mxGeometry x="252.25" y="200" width="105" height="100" as="geometry" />
        </mxCell>
        <mxCell id="CSa7q8-_0lmayoIT9pLw-63" value="" style="edgeStyle=orthogonalEdgeStyle;rounded=0;orthogonalLoop=1;jettySize=auto;html=1;" edge="1" parent="WIyWlLk6GJQsqaUBKTNV-1" source="CSa7q8-_0lmayoIT9pLw-30" target="CSa7q8-_0lmayoIT9pLw-6">
          <mxGeometry relative="1" as="geometry" />
        </mxCell>
        <mxCell id="CSa7q8-_0lmayoIT9pLw-67" style="edgeStyle=orthogonalEdgeStyle;rounded=0;orthogonalLoop=1;jettySize=auto;html=1;exitX=1;exitY=0.5;exitDx=0;exitDy=0;entryX=0;entryY=0.5;entryDx=0;entryDy=0;" edge="1" parent="WIyWlLk6GJQsqaUBKTNV-1" source="CSa7q8-_0lmayoIT9pLw-30" target="CSa7q8-_0lmayoIT9pLw-48">
          <mxGeometry relative="1" as="geometry" />
        </mxCell>
        <mxCell id="CSa7q8-_0lmayoIT9pLw-30" value="argv[i]&amp;nbsp;&lt;div&gt;is &quot;-st&quot;?&lt;/div&gt;" style="rhombus;whiteSpace=wrap;html=1;fillColor=#fff2cc;strokeColor=#d6b656;" vertex="1" parent="WIyWlLk6GJQsqaUBKTNV-1">
          <mxGeometry x="432.25" y="330" width="105" height="100" as="geometry" />
        </mxCell>
        <mxCell id="CSa7q8-_0lmayoIT9pLw-79" style="edgeStyle=orthogonalEdgeStyle;rounded=0;orthogonalLoop=1;jettySize=auto;html=1;exitX=0.5;exitY=1;exitDx=0;exitDy=0;fillColor=#fff2cc;strokeColor=#d6b656;" edge="1" parent="WIyWlLk6GJQsqaUBKTNV-1" source="CSa7q8-_0lmayoIT9pLw-44" target="CSa7q8-_0lmayoIT9pLw-45">
          <mxGeometry relative="1" as="geometry" />
        </mxCell>
        <mxCell id="CSa7q8-_0lmayoIT9pLw-44" value="sampling&amp;nbsp;&lt;div&gt;= stoi(argv[i + 1])&lt;/div&gt;" style="rounded=1;whiteSpace=wrap;html=1;absoluteArcSize=1;arcSize=14;strokeWidth=2;fillColor=#fff2cc;strokeColor=#d6b656;" vertex="1" parent="WIyWlLk6GJQsqaUBKTNV-1">
          <mxGeometry x="245.5" y="760" width="118.5" height="60" as="geometry" />
        </mxCell>
        <mxCell id="CSa7q8-_0lmayoIT9pLw-85" style="edgeStyle=orthogonalEdgeStyle;rounded=0;orthogonalLoop=1;jettySize=auto;html=1;exitX=1;exitY=0.5;exitDx=0;exitDy=0;entryX=0;entryY=0.5;entryDx=0;entryDy=0;fillColor=#fff2cc;strokeColor=#d6b656;" edge="1" parent="WIyWlLk6GJQsqaUBKTNV-1" source="CSa7q8-_0lmayoIT9pLw-45" target="CSa7q8-_0lmayoIT9pLw-73">
          <mxGeometry relative="1" as="geometry" />
        </mxCell>
        <mxCell id="CSa7q8-_0lmayoIT9pLw-90" style="edgeStyle=orthogonalEdgeStyle;rounded=0;orthogonalLoop=1;jettySize=auto;html=1;exitX=0;exitY=0.5;exitDx=0;exitDy=0;entryX=0;entryY=0.5;entryDx=0;entryDy=0;fillColor=#fff2cc;strokeColor=#d6b656;" edge="1" parent="WIyWlLk6GJQsqaUBKTNV-1" source="CSa7q8-_0lmayoIT9pLw-45" target="CSa7q8-_0lmayoIT9pLw-57">
          <mxGeometry relative="1" as="geometry">
            <Array as="points">
              <mxPoint x="50" y="890" />
              <mxPoint x="50" y="645" />
            </Array>
          </mxGeometry>
        </mxCell>
        <mxCell id="CSa7q8-_0lmayoIT9pLw-45" value="sampling&amp;nbsp; &amp;gt; 10?" style="rhombus;whiteSpace=wrap;html=1;fillColor=#fff2cc;strokeColor=#d6b656;" vertex="1" parent="WIyWlLk6GJQsqaUBKTNV-1">
          <mxGeometry x="232.75" y="850" width="145" height="80" as="geometry" />
        </mxCell>
        <mxCell id="CSa7q8-_0lmayoIT9pLw-70" style="edgeStyle=orthogonalEdgeStyle;rounded=0;orthogonalLoop=1;jettySize=auto;html=1;exitX=0.5;exitY=1;exitDx=0;exitDy=0;entryX=0.5;entryY=0;entryDx=0;entryDy=0;" edge="1" parent="WIyWlLk6GJQsqaUBKTNV-1" source="CSa7q8-_0lmayoIT9pLw-48" target="CSa7q8-_0lmayoIT9pLw-6">
          <mxGeometry relative="1" as="geometry">
            <Array as="points">
              <mxPoint x="665" y="460" />
            </Array>
          </mxGeometry>
        </mxCell>
        <mxCell id="CSa7q8-_0lmayoIT9pLw-48" value="argv[i]&amp;nbsp;&lt;div&gt;is &quot;-si&quot;?&lt;/div&gt;" style="rhombus;whiteSpace=wrap;html=1;fillColor=#f8cecc;strokeColor=#b85450;" vertex="1" parent="WIyWlLk6GJQsqaUBKTNV-1">
          <mxGeometry x="612" y="330" width="105" height="100" as="geometry" />
        </mxCell>
        <mxCell id="CSa7q8-_0lmayoIT9pLw-56" value="Error message&amp;nbsp;&lt;div&gt;01&lt;/div&gt;" style="shape=parallelogram;perimeter=parallelogramPerimeter;whiteSpace=wrap;html=1;fixedSize=1;" vertex="1" parent="WIyWlLk6GJQsqaUBKTNV-1">
          <mxGeometry x="604.5" y="615" width="120" height="60" as="geometry" />
        </mxCell>
        <mxCell id="CSa7q8-_0lmayoIT9pLw-57" value="Error message&amp;nbsp;&lt;div&gt;02&lt;/div&gt;" style="shape=parallelogram;perimeter=parallelogramPerimeter;whiteSpace=wrap;html=1;fixedSize=1;" vertex="1" parent="WIyWlLk6GJQsqaUBKTNV-1">
          <mxGeometry x="82" y="615" width="120" height="60" as="geometry" />
        </mxCell>
        <mxCell id="CSa7q8-_0lmayoIT9pLw-84" value="" style="edgeStyle=orthogonalEdgeStyle;rounded=0;orthogonalLoop=1;jettySize=auto;html=1;fillColor=#ffe6cc;strokeColor=#d79b00;" edge="1" parent="WIyWlLk6GJQsqaUBKTNV-1" source="CSa7q8-_0lmayoIT9pLw-72" target="CSa7q8-_0lmayoIT9pLw-73">
          <mxGeometry relative="1" as="geometry" />
        </mxCell>
        <mxCell id="CSa7q8-_0lmayoIT9pLw-72" value="interval&amp;nbsp;&lt;div&gt;= stoi(argv[i + 1])&lt;/div&gt;" style="rounded=1;whiteSpace=wrap;html=1;absoluteArcSize=1;arcSize=14;strokeWidth=2;fillColor=#ffe6cc;strokeColor=#d79b00;" vertex="1" parent="WIyWlLk6GJQsqaUBKTNV-1">
          <mxGeometry x="425.5" y="760" width="118.5" height="60" as="geometry" />
        </mxCell>
        <mxCell id="CSa7q8-_0lmayoIT9pLw-86" style="edgeStyle=orthogonalEdgeStyle;rounded=0;orthogonalLoop=1;jettySize=auto;html=1;exitX=1;exitY=0.5;exitDx=0;exitDy=0;entryX=1;entryY=0.5;entryDx=0;entryDy=0;" edge="1" parent="WIyWlLk6GJQsqaUBKTNV-1" source="CSa7q8-_0lmayoIT9pLw-73" target="CSa7q8-_0lmayoIT9pLw-25">
          <mxGeometry relative="1" as="geometry">
            <Array as="points">
              <mxPoint x="760" y="890" />
              <mxPoint x="760" y="250" />
            </Array>
          </mxGeometry>
        </mxCell>
        <mxCell id="CSa7q8-_0lmayoIT9pLw-73" value="i = i + 1" style="rounded=1;whiteSpace=wrap;html=1;absoluteArcSize=1;arcSize=14;strokeWidth=2;" vertex="1" parent="WIyWlLk6GJQsqaUBKTNV-1">
          <mxGeometry x="425.5" y="860" width="118.5" height="60" as="geometry" />
        </mxCell>
        <mxCell id="CSa7q8-_0lmayoIT9pLw-87" style="edgeStyle=orthogonalEdgeStyle;rounded=0;orthogonalLoop=1;jettySize=auto;html=1;exitX=0;exitY=0.5;exitDx=0;exitDy=0;entryX=0.5;entryY=0;entryDx=0;entryDy=0;entryPerimeter=0;" edge="1" parent="WIyWlLk6GJQsqaUBKTNV-1" source="CSa7q8-_0lmayoIT9pLw-25" target="CSa7q8-_0lmayoIT9pLw-10">
          <mxGeometry relative="1" as="geometry" />
        </mxCell>
        <mxCell id="CSa7q8-_0lmayoIT9pLw-88" style="edgeStyle=orthogonalEdgeStyle;rounded=0;orthogonalLoop=1;jettySize=auto;html=1;exitX=0.5;exitY=0;exitDx=0;exitDy=0;entryX=0.5;entryY=1;entryDx=0;entryDy=0;entryPerimeter=0;" edge="1" parent="WIyWlLk6GJQsqaUBKTNV-1" source="CSa7q8-_0lmayoIT9pLw-57" target="CSa7q8-_0lmayoIT9pLw-10">
          <mxGeometry relative="1" as="geometry" />
        </mxCell>
        <mxCell id="CSa7q8-_0lmayoIT9pLw-91" value="End function" style="strokeWidth=2;html=1;shape=mxgraph.flowchart.terminator;whiteSpace=wrap;" vertex="1" parent="WIyWlLk6GJQsqaUBKTNV-1">
          <mxGeometry x="609.5" y="760" width="110" height="60" as="geometry" />
        </mxCell>
        <mxCell id="CSa7q8-_0lmayoIT9pLw-92" style="edgeStyle=orthogonalEdgeStyle;rounded=0;orthogonalLoop=1;jettySize=auto;html=1;exitX=0.5;exitY=1;exitDx=0;exitDy=0;entryX=0.5;entryY=0;entryDx=0;entryDy=0;entryPerimeter=0;" edge="1" parent="WIyWlLk6GJQsqaUBKTNV-1" source="CSa7q8-_0lmayoIT9pLw-56" target="CSa7q8-_0lmayoIT9pLw-91">
          <mxGeometry relative="1" as="geometry" />
        </mxCell>
        <mxCell id="CSa7q8-_0lmayoIT9pLw-93" value="Yes" style="text;html=1;align=center;verticalAlign=middle;resizable=0;points=[];autosize=1;strokeColor=none;fillColor=none;" vertex="1" parent="WIyWlLk6GJQsqaUBKTNV-1">
          <mxGeometry x="269" y="297" width="40" height="30" as="geometry" />
        </mxCell>
        <mxCell id="CSa7q8-_0lmayoIT9pLw-94" value="Yes" style="text;html=1;align=center;verticalAlign=middle;resizable=0;points=[];autosize=1;strokeColor=none;fillColor=none;" vertex="1" parent="WIyWlLk6GJQsqaUBKTNV-1">
          <mxGeometry x="309" y="430" width="40" height="30" as="geometry" />
        </mxCell>
        <mxCell id="CSa7q8-_0lmayoIT9pLw-95" value="Yes" style="text;html=1;align=center;verticalAlign=middle;resizable=0;points=[];autosize=1;strokeColor=none;fillColor=none;" vertex="1" parent="WIyWlLk6GJQsqaUBKTNV-1">
          <mxGeometry x="490" y="430" width="40" height="30" as="geometry" />
        </mxCell>
        <mxCell id="CSa7q8-_0lmayoIT9pLw-96" value="Yes" style="text;html=1;align=center;verticalAlign=middle;resizable=0;points=[];autosize=1;strokeColor=none;fillColor=none;" vertex="1" parent="WIyWlLk6GJQsqaUBKTNV-1">
          <mxGeometry x="670" y="430" width="40" height="30" as="geometry" />
        </mxCell>
        <mxCell id="CSa7q8-_0lmayoIT9pLw-97" value="Yes" style="text;html=1;align=center;verticalAlign=middle;resizable=0;points=[];autosize=1;strokeColor=none;fillColor=none;" vertex="1" parent="WIyWlLk6GJQsqaUBKTNV-1">
          <mxGeometry x="537.75" y="480" width="40" height="30" as="geometry" />
        </mxCell>
        <mxCell id="CSa7q8-_0lmayoIT9pLw-98" value="Yes" style="text;html=1;align=center;verticalAlign=middle;resizable=0;points=[];autosize=1;strokeColor=none;fillColor=none;" vertex="1" parent="WIyWlLk6GJQsqaUBKTNV-1">
          <mxGeometry x="557.25" y="615" width="40" height="30" as="geometry" />
        </mxCell>
        <mxCell id="CSa7q8-_0lmayoIT9pLw-99" value="Yes" style="text;html=1;align=center;verticalAlign=middle;resizable=0;points=[];autosize=1;strokeColor=none;fillColor=none;" vertex="1" parent="WIyWlLk6GJQsqaUBKTNV-1">
          <mxGeometry x="202" y="615" width="40" height="30" as="geometry" />
        </mxCell>
        <mxCell id="CSa7q8-_0lmayoIT9pLw-100" value="No" style="text;html=1;align=center;verticalAlign=middle;resizable=0;points=[];autosize=1;strokeColor=none;fillColor=none;" vertex="1" parent="WIyWlLk6GJQsqaUBKTNV-1">
          <mxGeometry x="192.25" y="860" width="40" height="30" as="geometry" />
        </mxCell>
        <mxCell id="CSa7q8-_0lmayoIT9pLw-101" value="No" style="text;html=1;align=center;verticalAlign=middle;resizable=0;points=[];autosize=1;strokeColor=none;fillColor=none;" vertex="1" parent="WIyWlLk6GJQsqaUBKTNV-1">
          <mxGeometry x="212.75" y="220" width="40" height="30" as="geometry" />
        </mxCell>
        <mxCell id="CSa7q8-_0lmayoIT9pLw-102" value="No" style="text;html=1;align=center;verticalAlign=middle;resizable=0;points=[];autosize=1;strokeColor=none;fillColor=none;" vertex="1" parent="WIyWlLk6GJQsqaUBKTNV-1">
          <mxGeometry x="357.75" y="350" width="40" height="30" as="geometry" />
        </mxCell>
        <mxCell id="CSa7q8-_0lmayoIT9pLw-103" value="No" style="text;html=1;align=center;verticalAlign=middle;resizable=0;points=[];autosize=1;strokeColor=none;fillColor=none;" vertex="1" parent="WIyWlLk6GJQsqaUBKTNV-1">
          <mxGeometry x="537.75" y="350" width="40" height="30" as="geometry" />
        </mxCell>
        <mxCell id="CSa7q8-_0lmayoIT9pLw-104" value="No" style="text;html=1;align=center;verticalAlign=middle;resizable=0;points=[];autosize=1;strokeColor=none;fillColor=none;" vertex="1" parent="WIyWlLk6GJQsqaUBKTNV-1">
          <mxGeometry x="379.75" y="615" width="40" height="30" as="geometry" />
        </mxCell>
        <mxCell id="CSa7q8-_0lmayoIT9pLw-105" value="No" style="text;html=1;align=center;verticalAlign=middle;resizable=0;points=[];autosize=1;strokeColor=none;fillColor=none;" vertex="1" parent="WIyWlLk6GJQsqaUBKTNV-1">
          <mxGeometry x="306" y="704" width="40" height="30" as="geometry" />
        </mxCell>
        <mxCell id="CSa7q8-_0lmayoIT9pLw-106" value="Yes" style="text;html=1;align=center;verticalAlign=middle;resizable=0;points=[];autosize=1;strokeColor=none;fillColor=none;" vertex="1" parent="WIyWlLk6GJQsqaUBKTNV-1">
          <mxGeometry x="377.75" y="860" width="40" height="30" as="geometry" />
        </mxCell>
      </root>
    </mxGraphModel>
  </diagram>
</mxfile>
